<svg xmlns="http://www.w3.org/2000/svg" viewBox="58.37 126.24 634.71 579.76"><defs><style>.cls-1{fill:none;}.cls-2,.cls-3{fill:#231f20;}.cls-2{stroke:#fff;stroke-miterlimit:10;}</style></defs><g id="Backgorund"><rect class="cls-1" width="792" height="792"/></g><g id="Layer_5" data-name="Layer 5"><path class="cls-2" d="M353.75,531.89l-38.84,41.26-4.68,18.66h.11l0,.05,14,9.22,63.92-46.17A140.76,140.76,0,0,1,353.75,531.89Z"/><path class="cls-2" d="M314.79,472a143.6,143.6,0,0,1-4.18-15.7L295.3,472.14Z"/><path class="cls-2" d="M587.28,410.53c0,.19.05.38.07.57l.79-.58Z"/><path class="cls-2" d="M622.81,455.47l38.77-17.09-3.92-49.85h-.07l.06-.1-40.18-10.61A175.48,175.48,0,0,0,596.4,332l.39.43L615,294.13l-3.58-3.54-54.28,49a139.61,139.61,0,0,1,29.11,63.91l23.64,0-21.75,15.7a140.36,140.36,0,0,1-192.45,139l-65.11,47,21.52,14.17,33.68-25.71-1.69-1a175.73,175.73,0,0,0,53.51,11.69l19.69,36.23,49.36-8,0-.07.11,0,7.19-40.6A175.46,175.46,0,0,0,560.74,564l-.78.9,40.11,13.68,30.87-39.33-.06,0,.11,0-22.82-35.71-1.3,1.84a175.77,175.77,0,0,0,15.9-51.06Z"/><path class="cls-2" d="M579.43,259l0,.05,0-.11-38.08,18.58,1.64,1.47a177.35,177.35,0,0,0-41.78-19.51l-29.23,30.21a140.72,140.72,0,0,1,80.65,44.65l53.85-48.64Z"/><path class="cls-2" d="M221.05,458.58l15.78.44,2.53,9.59-26.87,7.51,2.69,12.26L227.67,486l2.33,8.33,15.58-2.16,3.59,13.6,41.89,3.3a176,176,0,0,0,31,42.76l-1.53-1.13-2.14,8.53,30.29-32.16A139.73,139.73,0,0,1,317.3,479l-38.61.23,30.44-31.45A140.41,140.41,0,0,1,463.34,288.44l30.21-31.21-.66-.18L480,217.33l-.09.06v-.06l-11.36-.26V201.5H441v11.62l-13.51,1.06-9-49.68-22.5,4,3.5,20-10,2.29L396,224.5,386,228l-42.5-78-7.88,3.46-12.55-26.72-3,.55L333,154.6l-7.19,3.15-13.71-26.93-2.25,2,13.35,26.07L315,162.5l26,71.74L319,210l-16,11.5,6,9-6,6.42-9.5-8.42-4.5,5-19-15L259.5,229l-23.11-15.5-10.89,15,65.92,55-4.42,7-41.75-21.08L225.5,273.5l5.5,20.32,47,22.68-2,5-17-6L253.5,328l-56.25-16.25-7.25,25,38.22,15.19L227,362l44.35,12.5-1.64,7.33-113.77-4.6-1.87,10.08-51.07.31v7.85l-43.25-1.91-.88,2.88L103,398.28v7.31l-34.75-.44.73,2.93,34,.33V421l67,1.5,1,11.1,46.56,2.57Z"/><polygon class="cls-3" points="530.3 224.29 287 475.69 402.51 475 185 706 599 407 477 407.27 693.08 212.08 530.3 224.29"/></g></svg>